<?xml version="1.0" standalone="no"?>
<!DOCTYPE svg PUBLIC "-//W3C//DTD SVG 20010904//EN"
 "http://www.w3.org/TR/2001/REC-SVG-20010904/DTD/svg10.dtd">
<svg version="1.0" xmlns="http://www.w3.org/2000/svg"
 width="345.000000pt" height="345.000000pt" viewBox="0 0 345.000000 345.000000"
 preserveAspectRatio="xMidYMid meet">
<metadata>
Created by potrace 1.14, written by Peter Selinger 2001-2017
</metadata>
<g transform="translate(0.000000,345.000000) scale(0.100000,-0.100000)"
fill="#000000" stroke="none">
<path d="M1068 2718 c-18 -3 -45 -20 -60 -37 -42 -47 -36 -109 15 -153 24 -22
3 -20 281 -22 170 -1 236 2 254 12 74 38 79 134 10 185 -26 19 -43 21 -247 21
-121 1 -235 -2 -253 -6z"/>
<path d="M1919 2722 c-38 -4 -77 -50 -85 -98 -6 -38 -3 -45 29 -80 l35 -39
234 -1 c130 0 248 4 267 10 40 12 71 57 71 104 0 23 -10 43 -33 69 l-34 36
-229 1 c-126 1 -241 0 -255 -2z"/>
<path d="M1265 2302 c-52 -8 -68 -15 -91 -39 -31 -34 -33 -99 -4 -136 32 -40
80 -49 213 -38 10 0 32 14 48 30 45 45 38 124 -15 163 -22 16 -107 27 -151 20z"/>
<path d="M1662 2288 c-75 -20 -94 -126 -32 -180 27 -25 38 -28 103 -28 39 -1
251 -1 470 -1 357 0 400 2 426 17 78 46 64 166 -22 192 -40 13 -899 12 -945 0z"/>
<path d="M613 1862 c-70 -33 -76 -137 -11 -183 28 -20 42 -22 193 -22 181 1
206 8 231 69 18 43 9 83 -27 119 l-29 30 -163 1 c-127 1 -169 -2 -194 -14z"/>
<path d="M1270 1872 c-29 -9 -70 -56 -76 -88 -7 -39 14 -84 52 -109 22 -14 51
-17 173 -17 176 -1 204 4 231 43 39 54 27 121 -27 156 -23 15 -52 18 -183 19
-85 1 -162 -1 -170 -4z"/>
<path d="M1854 1851 c-73 -44 -61 -163 18 -190 42 -15 914 -15 954 -1 83 30
91 153 12 196 -18 10 -129 13 -488 14 -440 0 -467 -1 -496 -19z"/>
<path d="M1679 1442 c-36 -4 -79 -51 -86 -95 -7 -48 26 -103 70 -115 25 -6
882 -9 945 -3 8 0 27 14 43 30 23 24 29 38 29 74 0 37 -6 51 -31 76 -17 17
-38 31 -47 32 -45 3 -900 4 -923 1z"/>
<path d="M1223 1434 c-38 -9 -73 -60 -73 -107 1 -78 44 -107 160 -107 80 0 83
1 116 34 45 45 48 101 6 147 -27 31 -33 32 -108 35 -43 1 -89 0 -101 -2z"/>
<path d="M1032 998 c-62 -39 -67 -125 -11 -172 l31 -26 238 0 c131 0 250 4
264 10 36 13 67 67 63 106 -6 44 -34 82 -70 93 -18 5 -134 9 -258 9 -205 0
-229 -2 -257 -20z"/>
<path d="M1898 1008 c-31 -11 -68 -64 -68 -99 0 -34 36 -88 66 -99 14 -6 133
-10 264 -10 l238 0 31 26 c39 32 50 84 28 130 -28 58 -46 62 -302 61 -126 0
-242 -4 -257 -9z"/>
</g>
</svg>
